<?xml version="1.0" encoding="utf-8"?>
<!-- Generator: Adobe Illustrator 17.0.2, SVG Export Plug-In . SVG Version: 6.00 Build 0)  -->
<!DOCTYPE svg PUBLIC "-//W3C//DTD SVG 1.1//EN" "http://www.w3.org/Graphics/SVG/1.1/DTD/svg11.dtd">
<svg version="1.1" id="Layer_1" xmlns="http://www.w3.org/2000/svg" xmlns:xlink="http://www.w3.org/1999/xlink" x="0px" y="0px"
	 width="2243.181px" height="80px" viewBox="0 0 2243.181 80" enable-background="new 0 0 2243.181 80" xml:space="preserve">
<rect x="0.362" fill="#0B2B35" width="2242.819" height="80"/>
<g>
	<rect x="0.362" y="10.737" fill="#DDB200" width="28.632" height="28.632"/>
	<rect x="668.436" y="10.737" fill="#DDB200" width="22.269" height="28.632"/>
	<rect x="747.968" y="10.737" fill="#DDB200" width="34.994" height="28.632"/>
	<rect x="0.362" y="39.369" fill="#DDB200" width="28.632" height="28.632"/>
	<rect x="54.444" y="10.737" fill="#0B2B35" width="31.813" height="28.632"/>
	<rect x="782.963" y="10.737" fill="#0B2B35" width="22.269" height="28.632"/>
	<rect x="782.963" y="39.369" fill="#0B2B35" width="22.269" height="28.632"/>
	<rect x="86.257" y="10.737" fill="#268BD2" width="28.632" height="28.632"/>
	<rect x="725.699" y="10.737" fill="#268BD2" width="22.269" height="28.632"/>
	<rect x="518.914" y="10.737" fill="#268BD2" width="28.632" height="28.632"/>
	<rect x="576.178" y="10.737" fill="#268BD2" width="28.632" height="28.632"/>
	<rect x="114.889" y="10.737" fill="#F4F4F2" width="28.632" height="28.632"/>
	<rect x="143.521" y="10.737" fill="#F4F4F2" width="25.45" height="28.632"/>
	<rect x="690.705" y="10.737" fill="#F4F4F2" width="34.994" height="28.632"/>
	<rect x="168.971" y="10.737" fill="#DD302E" width="34.994" height="28.632"/>
	<rect x="168.971" y="39.369" fill="#CC4A14" width="34.994" height="28.632"/>
	<rect x="229.416" y="39.369" fill="#D33682" width="28.632" height="28.632"/>
	<rect x="547.546" y="39.369" fill="#0B2B35" width="28.632" height="28.632"/>
	<rect x="289.861" y="39.369" fill="#DDB200" width="28.632" height="28.632"/>
	<rect x="318.492" y="10.737" fill="#869900" width="28.632" height="28.632"/>
	<rect x="805.232" y="10.737" fill="#869900" width="34.994" height="28.632"/>
	<rect x="490.283" y="10.737" fill="#869900" width="28.632" height="28.632"/>
	<rect x="576.178" y="39.369" fill="#DD302E" width="28.632" height="28.632"/>
	<rect x="604.81" y="39.369" fill="#0B2B35" width="28.632" height="28.632"/>
	<rect x="633.441" y="39.369" fill="#DD302E" width="34.994" height="28.632"/>
	<rect x="375.756" y="10.737" fill="#DD302E" width="28.632" height="28.632"/>
	<rect x="404.388" y="39.369" fill="#2EA197" width="25.45" height="28.632"/>
	<rect x="429.838" y="39.369" fill="#2EA197" width="31.813" height="28.632"/>
	<rect x="461.651" y="10.737" fill="#CC4A14" width="28.632" height="28.632"/>
	<rect x="461.651" y="39.369" fill="#CC4A14" width="28.632" height="28.632"/>
	<rect x="2087.297" y="10.737" fill="#0B2B35" width="28.632" height="28.632"/>
	<rect x="2087.297" y="39.369" fill="#0B2B35" width="28.632" height="25.45"/>
	<rect x="2033.215" y="10.737" fill="#268BD2" width="31.813" height="28.632"/>
	<rect x="1905.963" y="10.737" fill="#268BD2" width="31.813" height="28.632"/>
	<rect x="2014.127" y="10.737" fill="#F4F4F2" width="19.088" height="28.632"/>
	<rect x="2214.549" y="10.737" fill="#D33682" width="28.632" height="28.632"/>
	<rect x="2115.929" y="10.737" fill="#869900" width="22.269" height="28.632"/>
	<rect x="1937.776" y="39.369" fill="#0B2B35" width="22.269" height="25.45"/>
	<rect x="1960.045" y="39.369" fill="#DD302E" width="25.45" height="25.45"/>
	<rect x="1905.963" y="39.369" fill="#2EA197" width="31.813" height="25.45"/>
	<rect x="2033.215" y="39.369" fill="#CC4A14" width="31.813" height="25.45"/>
	<rect x="2189.099" y="39.369" fill="#CC4A14" width="25.45" height="25.45"/>
	<rect x="2163.648" y="10.737" fill="#CC4A14" width="25.45" height="28.632"/>
	<rect x="1097.912" y="10.737" fill="#DDB200" width="28.632" height="28.632"/>
	<rect x="1702.359" y="10.737" fill="#DDB200" width="31.813" height="28.632"/>
	<rect x="1794.617" y="10.737" fill="#DDB200" width="25.45" height="28.632"/>
	<rect x="1126.543" y="39.369" fill="#DDB200" width="28.632" height="28.632"/>
	<rect x="1040.648" y="10.737" fill="#0B2B35" width="28.632" height="28.632"/>
	<rect x="1820.068" y="10.737" fill="#0B2B35" width="28.632" height="28.632"/>
	<rect x="1820.068" y="39.369" fill="#0B2B35" width="28.632" height="28.632"/>
	<rect x="1069.28" y="10.737" fill="#268BD2" width="28.632" height="28.632"/>
	<rect x="1762.804" y="10.737" fill="#268BD2" width="31.813" height="28.632"/>
	<rect x="1559.201" y="10.737" fill="#268BD2" width="31.813" height="28.632"/>
	<rect x="1616.464" y="10.737" fill="#268BD2" width="31.813" height="28.632"/>
	<rect x="1183.807" y="10.737" fill="#F4F4F2" width="28.632" height="28.632"/>
	<rect x="1734.172" y="10.737" fill="#F4F4F2" width="28.632" height="28.632"/>
	<rect x="1155.175" y="10.737" fill="#DD302E" width="28.632" height="28.632"/>
	<rect x="1212.439" y="39.369" fill="#CC4A14" width="28.632" height="28.632"/>
	<rect x="1241.07" y="10.737" fill="#2EA197" width="31.813" height="28.632"/>
	<rect x="1298.334" y="10.737" fill="#268BD2" width="31.813" height="28.632"/>
	<rect x="1272.883" y="39.369" fill="#D33682" width="25.45" height="28.632"/>
	<rect x="1591.014" y="39.369" fill="#0B2B35" width="25.45" height="28.632"/>
	<rect x="1298.334" y="39.369" fill="#DDB200" width="31.813" height="28.632"/>
	<rect x="1387.41" y="10.737" fill="#869900" width="28.632" height="28.632"/>
	<rect x="1848.699" y="10.737" fill="#869900" width="31.813" height="28.632"/>
	<rect x="1530.569" y="10.737" fill="#869900" width="28.632" height="28.632"/>
	<rect x="1387.41" y="39.369" fill="#DD302E" width="28.632" height="28.632"/>
	<rect x="1616.464" y="39.369" fill="#DD302E" width="31.813" height="28.632"/>
	<rect x="1648.277" y="39.369" fill="#0B2B35" width="28.632" height="28.632"/>
	<rect x="1676.909" y="39.369" fill="#DD302E" width="25.45" height="28.632"/>
	<rect x="1416.042" y="10.737" fill="#DD302E" width="28.632" height="28.632"/>
	<rect x="1444.674" y="39.369" fill="#2EA197" width="28.632" height="28.632"/>
	<rect x="1473.306" y="39.369" fill="#2EA197" width="31.813" height="28.632"/>
	<rect x="1505.119" y="10.737" fill="#CC4A14" width="25.45" height="28.632"/>
	<rect x="1505.119" y="39.369" fill="#CC4A14" width="25.45" height="28.632"/>
	<rect x="980.203" y="10.737" fill="#268BD2" width="31.813" height="28.632"/>
	<rect x="897.49" y="10.737" fill="#268BD2" width="28.632" height="28.632"/>
	<rect x="954.753" y="10.737" fill="#268BD2" width="25.45" height="28.632"/>
	<rect x="926.121" y="39.369" fill="#0B2B35" width="28.632" height="28.632"/>
	<rect x="954.753" y="39.369" fill="#DD302E" width="25.45" height="28.632"/>
</g>
</svg>
