<?xml version="1.0" encoding="utf-8"?>
<!-- Generator: Adobe Illustrator 18.0.0, SVG Export Plug-In . SVG Version: 6.00 Build 0)  -->
<!DOCTYPE svg PUBLIC "-//W3C//DTD SVG 1.1//EN" "http://www.w3.org/Graphics/SVG/1.1/DTD/svg11.dtd">
<svg version="1.1"
	 id="svg2" inkscape:version="0.48.2 r9819" sodipodi:docname="cv-fr.svg" xmlns:dc="http://purl.org/dc/elements/1.1/" xmlns:sodipodi="http://sodipodi.sourceforge.net/DTD/sodipodi-0.dtd" xmlns:rdf="http://www.w3.org/1999/02/22-rdf-syntax-ns#" xmlns:svg="http://www.w3.org/2000/svg" xmlns:cc="http://creativecommons.org/ns#" xmlns:inkscape="http://www.inkscape.org/namespaces/inkscape"
	 xmlns="http://www.w3.org/2000/svg" xmlns:xlink="http://www.w3.org/1999/xlink" x="0px" y="0px" viewBox="0 0 612 792"
	 enable-background="new 0 0 612 792" xml:space="preserve">

<text transform="matrix(1 0 0 1 142.9688 44.857)" font-family="'JosefinSans'" font-size="32">pierre-alexandre st-jean</text>
<g>
	<a id="a3143" xlink:href="mailto://removethispart.pa@stjean.me" >
		<text transform="matrix(1 0 0 1 53.1797 81.7637)" font-family="'JosefinSans'" font-size="14.4">pa</text>
		<text transform="matrix(1 0 0 1 67.983 81.7637)" fill="#B9121B" font-family="'JosefinSans'" font-size="14.4">@</text>
		<text transform="matrix(1 0 0 1 82.2389 81.7637)" font-family="'JosefinSans'" font-size="14.4">stjean.me</text>
	</a>
	<a id="a3138" xlink:href="http://stjean.me" >
		<text transform="matrix(1 0 0 1 148.4796 92.964)" fill="#B9121B" font-family="'JosefinSans'" font-size="14.4">http://</text>
		<text transform="matrix(1 0 0 1 183.9605 92.964)" font-family="'JosefinSans'" font-size="14.4">stjean.me</text>
	</a>
	<a id="a3138_1_" xlink:href="http://stjean.me" >
		<text transform="matrix(1 0 0 1 148.4796 76.964)" fill="#B9121B" font-family="'JosefinSans'" font-size="14.4">http://</text>
		<text transform="matrix(1 0 0 1 183.9605 76.964)" font-family="'JosefinSans'" font-size="14.4">github.com/pastjean</text>
	</a>
	<text transform="matrix(1 0 0 1 310.5733 84.1641)" fill="#B9121B" font-family="'JosefinSans'" font-size="14.4">(418)</text>
	<text transform="matrix(1 0 0 1 344.3555 84.1641)" font-family="'JosefinSans'" font-size="14.4"> 952-9232</text>
	<a id="a3156" xlink:href="http://goo.gl/ZKd5g" >
		<text transform="matrix(1 0 0 1 419.917 78.1304)" fill="#B9121B" font-family="'JosefinSans'" font-size="14.4">101</text>
		<text transform="matrix(1 0 0 1 436.2462 78.1304)" font-family="'JosefinSans'" font-size="14.4"> Doire Sept-Îles, </text>
		<text transform="matrix(1 0 0 1 436.2462 95.4102)" font-family="'JosefinSans'" font-size="14.4"> Qc Ca G4R5K1</text>
	</a>
	<text transform="matrix(0.4521 0 0 1 140.68 88.1499)" font-family="'JosefinSans'" font-size="31.8547">|</text>
	<text transform="matrix(0.4521 0 0 1 302.28 88.1499)" font-family="'JosefinSans'" font-size="31.8547">|</text>
	<text transform="matrix(0.4521 0 0 1 410.2792 88.1499)" font-family="'JosefinSans'" font-size="31.8547">|</text>
</g>
<text transform="matrix(1 0 0 1 344.212 122.6856)" fill="#124559" font-family="'JosefinSans-Bold'" font-size="12.8">Formation</text>
<g>
	<text transform="matrix(1 0 0 1 323.3936 171.6865)" font-family="'JosefinSans-Bold'" font-size="12">Bac. - Génie logiciel | École de Technologie Supérieure</text>
	<text transform="matrix(1 0 0 1 328.1934 187.6865)" font-family="'JosefinSans'" font-size="12">2013 | Montréal, Qc</text>
</g>
<g>
	<text transform="matrix(1 0 0 1 323.3936 138.9732)" font-family="'JosefinSans-Bold'" font-size="12">Maitrise - Informatique | Université Laval</text>
	<text transform="matrix(1 0 0 1 329.4943 154.9732)" font-family="'JosefinSans'" font-size="12">Depuis Automne 2013 | Québec, Qc</text>
</g>
<g>
	<text transform="matrix(1 0 0 1 323.3936 204.9756)" font-family="'JosefinSans-Bold'" font-size="12">DEC. - Techniques de l&apos;informatique | Cégep de Sept-Îles</text>
	<text transform="matrix(1 0 0 1 328.1934 220.9756)" font-family="'JosefinSans'" font-size="12">2009 | Sept-Îles, Qc</text>
</g>
<text transform="matrix(1 0 0 1 344.2119 730.7999)" fill="#124559" font-family="'JosefinSans-Bold'" font-size="12.8">Références</text>
<text transform="matrix(1 0 0 1 328.1934 746.7999)" font-family="'JosefinSans'" font-size="12">Disponibles sur demande</text>
<g id="flowRoot4349">
</g>
<g id="flowRoot4315" transform="translate(0,-7.6538139)">
</g>
<g id="flowRoot4327" transform="translate(0,60.27685)">
</g>
<g id="flowRoot4339" transform="translate(0,128.20755)">
</g>
<g id="flowRoot4361" transform="translate(0,232.34621)">
</g>
<text transform="matrix(1 0 0 1 38.212 731.9425)" fill="#124559" font-family="'JosefinSans-Bold'" font-size="12.8">Profil</text>
<g id="flowRoot4515" transform="translate(-3.97768,517.83347)">
</g>
<text transform="matrix(1 0 0 1 344.2119 488.588)" fill="#124559" font-family="'JosefinSans-Bold'" font-size="12.8">Implications sociales</text>
<g>
	<text transform="matrix(1 0 0 1 323.3936 505.3887)" font-family="'JosefinSans-Bold'" font-size="12.8">Tournoi de Hockey Provincial de la Santé</text>
	<text transform="matrix(1 0 0 1 328.1934 519.7881)" font-family="'JosefinSans'" font-size="12">2012 | Site Web de la 25ieme édition</text>
</g>
<g>
	<text transform="matrix(1 0 0 1 323.3936 538.9884)" font-family="'JosefinSans-Bold'" font-size="12.8">Moniteur d’escalade | Mur d’escalade Lavoie</text>
	<text transform="matrix(1 0 0 1 328.1934 553.3887)" font-family="'JosefinSans'" font-size="12">2006-2009 | Cégep de Sept-Îles</text>
</g>
<g>
	<text transform="matrix(1 0 0 1 323.3936 572.588)" font-family="'JosefinSans-Bold'" font-size="12.8">Enseignant et Directeur - Ensemble Tam Ti Delam </text>
	<text transform="matrix(1 0 0 1 328.1934 586.9884)" font-family="'JosefinSans'" font-size="12">2008-2009 | Sept-Îles</text>
</g>
<g>
	<text transform="matrix(1 0 0 1 323.3936 606.1885)" font-family="'JosefinSans-Bold'" font-size="12.8">Patrouilleur - Patrouille de ski canadienne </text>
	<text transform="matrix(1 0 0 1 328.1934 620.588)" font-family="'JosefinSans'" font-size="12">2007-2008 | Sept-Iles</text>
</g>
<g id="flowRoot4515-7" transform="translate(-3.97768,592.43756)">
</g>
<g>
	<text transform="matrix(1 0 0 1 22.3912 284.4)" font-family="'JosefinSans'" font-size="12">2010 - 2013 | Montréal, Qc</text>
	<text transform="matrix(1 0 0 1 17.3956 270)" font-family="'JosefinSans-Bold'" font-size="12">Club Chinook - Voiture éolienne | ETS</text>
	<text transform="matrix(1 0 0 1 22.1939 298.4)" font-family="'JosefinSans'" font-size="12">* Responsable équipe logiciel</text>
	<text transform="matrix(1 0 0 1 22.1939 312.7999)" font-family="'JosefinSans'" font-size="12">* Système de calcul temps réel pour l&apos;automatisation</text>
	<text transform="matrix(1 0 0 1 22.1939 327.1997)" font-family="'JosefinSans'" font-size="12">* Conception du volant du pilote</text>
	<text transform="matrix(1 0 0 1 22.1939 341.5996)" font-family="'JosefinSans'" font-size="12">* Conception de cartes électroniques</text>
</g>
<text transform="matrix(1 0 0 1 38.2119 122.6856)" fill="#124559" font-family="'JosefinSans-Bold'" font-size="12.8">Projets</text>
<g>
	<text transform="matrix(1 0 0 1 22.3916 181.3731)" font-family="'JosefinSans'" font-size="12">Depuis automne 2013 | Québec, Qc</text>
	<rect x="17.4" y="128.8" fill="none" width="262.2" height="39.9"/>
	<text transform="matrix(1 0 0 1 17.3956 138.9732)" font-family="'JosefinSans-Bold'" font-size="12">Les systèmes biologiques et leurs représentation en </text>
	<text transform="matrix(1 0 0 1 17.3956 153.3731)" font-family="'JosefinSans-Bold'" font-size="12">graphes dynamiques | Institut Universitaire en Santé </text>
	<text transform="matrix(1 0 0 1 17.3956 167.7729)" font-family="'JosefinSans-Bold'" font-size="12">Mentale de Québec</text>
	<text transform="matrix(1 0 0 1 22.1944 196.9732)" font-family="'JosefinSans'" font-size="12">* Responsable équipe logiciel</text>
	<text transform="matrix(1 0 0 1 22.1944 211.3731)" font-family="'JosefinSans'" font-size="12">* Système de calcul temps réel pour l&apos;automatisation</text>
	<text transform="matrix(1 0 0 1 22.1944 225.7729)" font-family="'JosefinSans'" font-size="12">* Conception du volant du pilote</text>
	<text transform="matrix(1 0 0 1 22.1944 240.1729)" font-family="'JosefinSans'" font-size="12">* Conception de cartes électroniques</text>
</g>
<text transform="matrix(1 0 0 1 344.2119 245.6553)" fill="#124559" font-family="'JosefinSans-Bold'" font-size="12.8">Habiletés Informatique</text>
<g>
	<text transform="matrix(1 0 0 1 323.3936 260.8428)" font-family="'JosefinSans-Bold'" font-size="12.8">Languages de programmations :</text>
	<rect x="328.2" y="266.7" fill="none" width="266.4" height="26.8"/>
	<text transform="matrix(1 0 0 1 328.2003 275.651)" font-family="'JosefinSans'" font-size="12">[C, Javascript, Ruby, Go, HTML/CSS, Python, Java, </text>
	<text transform="matrix(1 0 0 1 328.2003 290.0508)" font-family="'JosefinSans'" font-size="12">PHP, PL/SQL, ...]</text>
</g>
<g>
	<text transform="matrix(0.921 0 0 1 323.3936 305.7734)" font-family="'JosefinSans-Bold'" font-size="12.8">Bases de données :</text>
	<rect x="327.8" y="312.7" fill="none" width="266.8" height="27.8"/>
	<text transform="matrix(0.921 0 0 1 327.8135 321.6533)" font-family="'JosefinSans'" font-size="12">[CouchDB, Redis, MySQL, PostgreSQL, Oracle, SQL </text>
	<text transform="matrix(0.921 0 0 1 327.8135 336.0532)" font-family="'JosefinSans'" font-size="12">Server, ...]</text>
</g>
<g>
	<text transform="matrix(0.921 0 0 1 323.3936 352.834)" font-family="'JosefinSans-Bold'" font-size="12.8">Logiciels :</text>
	<rect x="327.8" y="358.2" fill="none" width="266.8" height="45.2"/>
	<text transform="matrix(0.921 0 0 1 327.8135 367.2114)" font-family="'JosefinSans'" font-size="12">[Linux, OSX, Windows, Adobe: [Ps, Ai], Inventor, Solid</text>
	<text transform="matrix(0.921 0 0 1 575.1085 367.2114)" font-family="'JosefinSans'" font-size="12">-</text>
	<text transform="matrix(0.921 0 0 1 327.8135 381.6113)" font-family="'JosefinSans'" font-size="12">Works, Microsoft Project, SAP, OsiSoft Pi, VMWare, vim, </text>
	<text transform="matrix(0.921 0 0 1 327.8135 396.0107)" font-family="'JosefinSans'" font-size="12">Mathematica, ...]</text>
</g>
<g>
	<text transform="matrix(1 0 0 1 323.3936 415.796)" font-family="'JosefinSans-Bold'" font-size="12.8">Autres :</text>
	<rect x="328.2" y="422.3" fill="none" width="266.4" height="44.7"/>
	<text transform="matrix(1 0 0 1 328.1934 431.2549)" font-family="'JosefinSans'" font-size="12">[Gestion de versions :  [GIT, ...], systèmes distribués, </text>
	<text transform="matrix(1 0 0 1 328.1934 445.6553)" font-family="'JosefinSans'" font-size="12">systèmes haute  disponibilité, NoSQL, Cisco IOS, sys</text>
	<text transform="matrix(1 0 0 1 583.1514 445.6553)" font-family="'JosefinSans'" font-size="12">-</text>
	<text transform="matrix(1 0 0 1 328.1934 460.0547)" font-family="'JosefinSans'" font-size="12">tèmes embarqués, BDD, TDD] </text>
</g>
<rect x="22.4" y="737" fill="none" width="262.5" height="27.1"/>
<text transform="matrix(1 0 0 1 22.3916 745.9521)" font-family="'JosefinSans'" font-size="12">[autonome, responsable, créatif, sociable, motivé,  </text>
<text transform="matrix(1 0 0 1 22.3916 760.3525)" font-family="'JosefinSans'" font-size="12">leader]</text>
<text transform="matrix(1 0 0 1 344.2119 645.2676)" fill="#124559" font-family="'JosefinSans-Bold'" font-size="12.8">Intérêts</text>
<rect x="328.2" y="652.3" fill="none" width="266.4" height="56.8"/>
<text transform="matrix(1 0 0 1 328.1934 661.3497)" font-family="'JosefinSans'" font-size="12">[Kitesurf/Snowkite, Aventures, Design, Systèmes em-</text>
<text transform="matrix(1 0 0 1 328.1934 675.7491)" font-family="'JosefinSans'" font-size="12">barqués, Visualisation de données, design, architecture </text>
<text transform="matrix(1 0 0 1 328.1934 690.1495)" font-family="'JosefinSans'" font-size="12">logiciel, langages de programmation, interfaces utilisa-</text>
<text transform="matrix(1 0 0 1 328.1934 704.5498)" font-family="'JosefinSans'" font-size="12">teur, méthodes de développement]</text>
<text transform="matrix(1 0 0 1 38.212 366.0362)" fill="#124559" font-family="'JosefinSans-Bold'" font-size="12.8">Expériences</text>
<g>
	<text transform="matrix(1 0 0 1 17.3956 383.6358)" font-family="'JosefinSans-Bold'" font-size="12.8">Stagiaire/Analyste informatique | Aluminerie Alouette</text>
	<rect x="22.4" y="387.6" fill="none" width="238.6" height="31.2"/>
	<text transform="matrix(1 0 0 1 22.3912 397.8028)" font-family="'JosefinSans'" font-size="12">Été 2012, Janvier à Août 2011,</text>
	<text transform="matrix(1 0 0 1 22.3912 412.2032)" font-family="'JosefinSans'" font-size="12">Janvier à Avril 2010, Été 2008 | Sept-Îles , Qc</text>
	<rect x="22.2" y="421.5" fill="none" width="262.4" height="102"/>
	<text transform="matrix(1 0 0 1 22.1944 431.7003)" font-family="'JosefinSans'" font-size="12">* Application Mobile et Web</text>
	<text transform="matrix(1 0 0 1 22.1944 446.0997)" font-family="'JosefinSans'" font-size="12">* Visualisation de données temps-réel</text>
	<text transform="matrix(1 0 0 1 22.1944 460.5)" font-family="'JosefinSans'" font-size="12">* Simplification d&apos;interfaces usager</text>
	<text transform="matrix(1 0 0 1 22.1944 474.9004)" font-family="'JosefinSans'" font-size="12">* Migration de version Osisoft PI</text>
	<text transform="matrix(1 0 0 1 22.1944 489.2999)" font-family="'JosefinSans'" font-size="12">* Création d&apos;un logiciel adapté pour écran tactileinter</text>
	<text transform="matrix(1 0 0 1 273.7702 489.2999)" font-family="'JosefinSans'" font-size="12">-</text>
	<text transform="matrix(1 0 0 1 22.1944 503.7003)" font-family="'JosefinSans'" font-size="12">agissant avec SAP</text>
	<text transform="matrix(1 0 0 1 22.1944 518.0997)" font-family="'JosefinSans'" font-size="12">* Réalisation d&apos;un portail intranet de données</text>
</g>
<g>
	<text transform="matrix(1 0 0 1 17.3956 542.5528)" font-family="'JosefinSans-Bold'" font-size="12.8">KDE pour le Google summer of Code</text>
	<text transform="matrix(1 0 0 1 22.3912 558.5528)" font-family="'JosefinSans'" font-size="12">Été 2009 | Sept-Îles , Qc</text>
	<rect x="22.2" y="565.1" fill="none" width="216.1" height="45.9"/>
	<text transform="matrix(1 0 0 1 22.1944 575.2979)" font-family="'JosefinSans'" font-size="12">* Réusinage de code</text>
	<text transform="matrix(1 0 0 1 22.1944 589.6983)" font-family="'JosefinSans'" font-size="12">* Création de tests unitaires</text>
	<text transform="matrix(1 0 0 1 22.1944 604.0978)" font-family="'JosefinSans'" font-size="12">* Création d&apos;une bibliothèque pour C++</text>
</g>
<g>
	<text transform="matrix(1 0 0 1 17.3956 630.0362)" font-family="'JosefinSans-Bold'" font-size="12.8">Analyste réseau | Compagnie minière IOC</text>
	<text transform="matrix(1 0 0 1 22.3912 646.0362)" font-family="'JosefinSans'" font-size="12">Été 2007 &amp; Hiver 2007-2008 | Sept-Îles , Qc</text>
	<rect x="22.2" y="654.3" fill="none" width="257.9" height="56.2"/>
	<text transform="matrix(1 0 0 1 22.1944 664.4796)" font-family="'JosefinSans'" font-size="12">* Analyse et configuration de commutateurs de </text>
	<text transform="matrix(1 0 0 1 22.1944 678.88)" font-family="'JosefinSans'" font-size="12">niveau 3 sur fibre optique</text>
	<text transform="matrix(1 0 0 1 22.1944 693.2803)" font-family="'JosefinSans'" font-size="12">* Gestion du réseau </text>
	<text transform="matrix(1 0 0 1 22.1944 707.6797)" font-family="'JosefinSans'" font-size="12">* Support à l’usager</text>
</g>
<g>
	<rect fill="#2ECC71" width="102" height="7.5"/>
	<rect x="102" fill="#081926" width="102" height="7.5"/>
	<rect x="204" fill="#FFD522" width="102" height="7.5"/>
	<rect x="306" fill="#DA302E" width="102" height="7.5"/>
	<rect x="408" fill="#2E6FBC" width="102" height="7.5"/>
	<rect x="510" fill="#92A0A0" width="102" height="7.5"/>
</g>
</svg>
